HIERARCHY
ROOT simHips
{
  OFFSET 17.5636 99.2952 -1.90972
  CHANNELS 6 Xposition Yposition Zposition Zrotation Xrotation Yrotation
  JOINT simSpine
  {
    OFFSET -0.000355721 21.3001 -0.016921
    CHANNELS 3 Zrotation Xrotation Yrotation
    JOINT simLeftArm
    {
      OFFSET 13.5181 21.3012 0
      CHANNELS 3 Zrotation Xrotation Yrotation
      JOINT simLeftForeArm
      {
        OFFSET 24.5783 0 0
        CHANNELS 3 Zrotation Xrotation Yrotation
        JOINT simLeftHand
        {
          OFFSET 24.5783 0 0
          CHANNELS 3 Zrotation Xrotation Yrotation
          End Site
          {
            OFFSET 7.32568 1.52588e-005 0.0169305
          }
        }
      }
    }
    JOINT simHead
    {
      OFFSET 0 27.4458 -0.00489235
      CHANNELS 3 Zrotation Xrotation Yrotation
      End Site
      {
        OFFSET 0 0 0
      }
    }
    JOINT simRightArm
    {
      OFFSET -13.5174 21.3012 0
      CHANNELS 3 Zrotation Xrotation Yrotation
      JOINT simRightForeArm
      {
        OFFSET -24.5783 0 0
        CHANNELS 3 Zrotation Xrotation Yrotation
        JOINT simRightHand
        {
          OFFSET -24.5783 0 0
          CHANNELS 3 Zrotation Xrotation Yrotation
          End Site
          {
            OFFSET -7.32568 1.52588e-005 0.0169305
          }
        }
      }
    }
  }
  JOINT simRightUpLeg
  {
    OFFSET -8.44614 -9.41038 0.835684
    CHANNELS 3 Zrotation Xrotation Yrotation
    JOINT simRightLeg
    {
      OFFSET 0 -40.9639 0
      CHANNELS 3 Zrotation Xrotation Yrotation
      JOINT simRightFoot
      {
        OFFSET 0 -40.9639 0
        CHANNELS 3 Zrotation Xrotation Yrotation
        End Site
        {
          OFFSET 0.50614 -9.67405 14.6709
        }
      }
    }
  }
  JOINT simLeftUpLeg
  {
    OFFSET 8.44614 -9.41038 0.835684
    CHANNELS 3 Zrotation Xrotation Yrotation
    JOINT simLeftLeg
    {
      OFFSET 0 -40.9639 0
      CHANNELS 3 Zrotation Xrotation Yrotation
      JOINT simLeftFoot
      {
        OFFSET 0 -40.9639 0
        CHANNELS 3 Zrotation Xrotation Yrotation
        End Site
        {
          OFFSET -0.50614 -9.67405 14.6709
        }
      }
    }
  }
}
MOTION
Frames:	21
Frame Time:	0.0333333
-46.4488 99.4545 120.207 -1.19702 -1.09892 -8.35482 -0.397021 5.76231 2.36481 -45.8775 16.5442 -33.5559 -2.38819 4.37949 -24.7752 10.6384 8.86643 -17.5132 4.53652 8.25136 -4.74944 53.7804 34.9128 12.2146 2.84089 0.688223 15.5848 -5.33302 -0.181216 16.8932 -2.85024 -4.68258 -2.51559 1.49025 18.0174 0.631039 0.7121 -9.97499 2.02406 0.323127 6.1385 2.89365 -0.0254375 0.111089 1.23359 -1.93512 -10.7989 1.2926 
-46.2766 99.3884 120.363 -1.24161 -1.27267 -8.84943 -0.797753 5.71584 2.45872 -45.2442 16.4489 -33.6599 -2.32584 3.79448 -26.2199 10.954 8.79141 -18.1473 4.62371 8.48077 -4.47461 54.1948 34.9221 11.9149 2.86605 0.613971 15.7261 -5.3951 -0.174575 16.9551 -2.71839 -4.20871 -3.21301 1.3531 17.5261 0.286725 0.527122 -10.259 1.50779 0.210137 6.57195 3.15192 -0.128739 0.00178847 1.32962 -1.81445 -10.9712 1.34071 
-46.1358 99.3133 120.583 -1.27894 -1.41366 -9.38179 -1.06987 5.53342 2.66554 -45.0557 16.5964 -33.5066 -2.15794 3.49978 -27.2426 11.1667 8.77806 -18.6515 4.57452 8.88384 -4.27006 54.6178 34.8842 11.4523 2.96223 0.478095 15.936 -5.27523 -0.261331 17.0433 -2.59335 -3.4198 -3.66781 1.16137 16.4673 0.172713 0.427659 -10.4872 1.32225 0.101088 6.93609 3.21125 -0.167191 1.78174e-005 1.46628 -1.77817 -11.2538 1.49121 
-46.0306 99.25 120.877 -1.33997 -1.49974 -9.83366 -1.14663 5.19876 2.84102 -45.3693 17.0712 -33.0391 -2.13947 3.35283 -27.7248 11.4216 8.87003 -19.013 4.38047 9.40942 -4.25563 55.024 34.8271 10.8781 3.08171 0.376477 15.9655 -5.20058 -0.350207 17.1901 -2.46954 -2.37841 -3.50664 0.876671 14.9989 0.358044 0.567763 -10.7105 1.41873 0.0182183 7.2827 3.07967 -0.159656 0.0442523 1.62581 -1.84632 -11.6255 1.68229 
-45.9448 99.2009 121.149 -1.35346 -1.53918 -10.2841 -1.11333 4.77494 2.99875 -46.2801 17.6746 -32.1685 -2.11959 3.38836 -27.6008 11.502 8.89323 -19.2153 3.96902 9.83659 -4.1131 55.3775 34.812 10.3236 3.12053 0.371235 15.8289 -5.15601 -0.372972 17.1515 -2.52745 -1.38804 -3.28347 0.727909 13.4722 0.64572 1.03909 -10.8199 1.70214 -0.110814 7.52365 2.99689 -0.134826 0.120795 1.80667 -1.81845 -11.9152 1.88721 
-45.8819 99.1737 121.403 -1.33506 -1.56116 -10.6515 -0.997515 4.35732 3.09023 -47.7305 18.382 -30.9095 -2.16882 3.50648 -26.923 11.5952 8.9511 -19.2359 3.46794 10.0187 -3.88081 55.6391 34.7122 9.83011 3.24991 0.330493 15.4822 -4.87321 -0.513469 17.0436 -2.68926 -0.576218 -3.10599 0.672694 12.2357 0.901039 1.52257 -10.8552 2.02443 -0.286786 7.68556 2.98367 -0.09678 0.141638 1.97715 -1.63373 -11.9627 2.08475 
-45.8709 99.1562 121.625 -1.31968 -1.56862 -10.9721 -0.828721 3.9993 3.15255 -49.5509 19.0929 -29.3964 -2.48892 3.62067 -25.5459 11.3805 8.84556 -18.8597 2.96741 9.92162 -3.69217 55.7495 34.7744 9.50602 3.35956 0.319184 15.082 -4.6909 -0.618528 16.9782 -2.77146 -0.0985903 -2.92354 0.611465 11.5217 1.06551 1.8264 -10.9028 2.17225 -0.421107 8.03061 3.06114 -0.117455 -0.068728 2.14241 -1.37354 -11.8625 2.26331 
-45.8723 99.1148 121.824 -1.32186 -1.60682 -11.2301 -0.696142 3.72896 3.14575 -51.466 19.8367 -27.7113 -2.97464 3.81058 -23.516 10.9582 8.65754 -18.2329 2.59374 9.7265 -3.51074 55.8338 34.9295 9.27906 3.3815 0.352779 14.7279 -4.61532 -0.658521 16.8942 -2.73856 0.38259 -3.2054 0.547151 10.8199 1.1264 1.5818 -10.7813 2.40757 -0.468997 8.13972 3.20342 -0.151848 0.015475 2.24662 -1.2154 -11.8633 2.35995 
-45.8903 99.0904 122.069 -1.31404 -1.70289 -11.4771 -0.689317 3.59816 3.12308 -53.2923 20.6011 -26.0304 -3.48282 4.22907 -20.8706 10.2988 8.45499 -17.3248 2.37119 9.61052 -3.29214 55.8879 35.0859 9.19349 3.53366 0.289307 14.3951 -4.30229 -0.807405 16.7446 -2.74425 0.596232 -3.15314 0.522135 10.8452 1.12822 1.40993 -10.8482 2.44353 -0.578165 8.37574 3.35841 -0.141271 0.0894108 2.38916 -0.986222 -11.8686 2.48151 
-45.9321 99.0798 122.29 -1.27443 -1.78817 -11.6717 -0.683027 3.512 3.06755 -55.0647 21.5258 -24.3802 -3.97137 4.75157 -17.9474 9.35542 8.19438 -16.0834 2.17143 9.61653 -3.194 55.7883 35.4366 9.25849 3.55031 0.337346 14.1486 -4.25959 -0.83064 16.7338 -2.84482 0.543966 -2.99882 0.582807 11.3437 1.08512 1.33115 -11.0542 2.44934 -0.73053 8.65128 3.54104 -0.116258 0.0337471 2.53296 -0.646842 -11.8252 2.59084 
-45.9946 99.0487 122.504 -1.2454 -1.87763 -11.7762 -0.65488 3.46273 2.98869 -56.6865 22.6703 -22.7764 -4.21208 5.59622 -15.0504 8.44342 8.13627 -14.8296 1.97933 9.78031 -3.18318 55.696 35.6804 9.31777 3.54426 0.391326 13.9209 -4.1686 -0.908057 16.8902 -2.89493 0.630222 -2.76201 0.592954 11.6479 1.06417 1.36905 -11.2825 2.39161 -0.812988 8.71104 3.78418 -0.152576 0.338438 2.65445 -0.270545 -11.8657 2.61581 
-46.081 99.0307 122.724 -1.25766 -1.96182 -11.8668 -0.601349 3.47406 2.9722 -58.1388 23.922 -21.1385 -4.4301 6.39341 -12.607 7.51365 8.08153 -13.747 1.8074 10.0004 -3.22498 55.5426 35.8681 9.45021 3.60845 0.429644 13.6914 -4.12936 -0.909747 16.7915 -2.85514 0.813244 -2.58662 0.560922 11.7708 1.06327 1.46308 -11.5452 2.3533 -0.792592 8.81993 3.84815 -0.216572 0.642428 2.7277 -0.105007 -11.9896 2.69588 
-46.1912 99.0231 122.958 -1.28691 -2.05203 -11.93 -0.604007 3.44651 2.95532 -59.3804 25.2543 -19.2993 -4.46935 7.25145 -10.8951 6.94827 8.24919 -13.2104 1.76316 10.2864 -3.34513 55.4773 36.0113 9.52463 3.75048 0.371328 13.558 -4.09591 -0.953367 16.7933 -2.76791 1.11229 -2.5095 0.50619 11.7253 1.06724 1.44571 -11.6898 2.34575 -0.706965 8.94757 3.91987 -0.307339 0.931117 2.77882 0.0175748 -12.0345 2.74169 
-46.3102 99.015 123.176 -1.33436 -2.12783 -11.9697 -0.617326 3.37405 2.95326 -60.404 26.5127 -17.3674 -4.39198 8.0412 -9.99608 6.70059 8.52779 -13.1931 1.81362 10.5716 -3.48194 55.5129 36.1832 9.5034 3.70063 0.449518 13.5483 -4.15968 -0.929235 16.9287 -2.69453 1.41638 -2.59938 0.501003 11.624 1.08534 1.44661 -11.7821 2.44711 -0.608053 9.09153 3.84854 -0.361455 1.14899 2.82133 0.100669 -12.0661 2.86514 
-46.4346 99.0101 123.389 -1.38238 -2.16231 -12.0342 -0.707248 3.25855 2.98175 -61.1509 27.5145 -15.3541 -4.27886 8.52134 -9.77799 6.70955 8.73009 -13.5908 1.98204 10.6992 -3.61425 55.6345 36.3326 9.42926 3.64892 0.472223 13.6708 -4.21468 -0.867914 16.8562 -2.60623 1.63187 -2.61879 0.50105 11.5814 1.11734 1.47198 -11.8217 2.51303 -0.511031 9.14558 3.72997 -0.383916 1.38566 2.89109 0.142561 -12.1142 3.01682 
-46.5807 99.004 123.596 -1.46596 -2.17898 -12.0464 -0.782265 3.14731 3.01492 -61.6658 27.7802 -13.3799 -4.19269 8.53404 -9.95153 6.73734 8.70885 -13.9095 2.24621 10.7601 -3.85652 55.7754 36.4323 9.33888 3.73222 0.390177 13.8411 -4.10482 -0.934701 16.9291 -2.45088 1.88727 -2.75252 0.470886 11.4526 1.16019 1.4636 -11.8318 2.60654 -0.356002 9.51551 3.57988 -0.417337 1.23143 2.96397 0.144883 -12.1524 3.13974 
-46.7276 98.9981 123.781 -1.511 -2.16613 -11.9363 -0.928752 2.99571 2.93038 -61.9782 27.3315 -11.5139 -4.02658 8.29038 -10.1791 6.7549 8.49395 -14.1625 2.59784 10.7699 -4.18606 55.9991 36.5487 9.27893 3.73727 0.391493 13.9767 -3.96764 -0.981343 16.9677 -2.31148 2.10524 -2.84218 0.449955 11.325 1.14674 1.45834 -11.8584 2.62037 -0.227682 9.64613 3.43667 -0.418844 1.21493 2.99664 0.150672 -12.1395 3.20745 
-46.8678 98.9933 123.938 -1.51714 -2.14536 -11.7368 -1.13311 2.85787 2.76301 -61.9545 26.3113 -10.0141 -4.09221 7.55369 -10.3547 6.45462 7.85584 -14.1382 2.94893 10.7673 -4.38783 56.1522 36.7656 9.38238 3.67674 0.474211 14.0816 -4.16812 -0.863976 16.9901 -2.21169 2.2792 -2.93479 0.448964 11.2358 1.0793 1.42935 -11.8893 2.58621 -0.120439 9.51925 3.31817 -0.407181 1.42108 2.97637 0.155806 -12.1259 3.19835 
-47.0209 98.984 124.094 -1.54602 -2.12405 -11.465 -1.30983 2.76437 2.63433 -61.6425 25.2386 -9.06801 -4.04994 7.0671 -10.4514 6.24477 7.38057 -14.1317 3.3056 10.7069 -4.68977 56.4338 36.6704 9.35936 3.77782 0.367527 14.1232 -3.94372 -0.954669 16.8429 -2.06013 2.53822 -3.05358 0.41674 11.0052 1.02599 1.44917 -11.8855 2.54023 0.0408764 9.62794 3.14286 -0.412517 1.3705 2.92667 0.0648098 -12.142 3.15609 
-47.162 98.9766 124.226 -1.53796 -2.09543 -11.1153 -1.41922 2.63575 2.52465 -61.202 24.3622 -8.75127 -4.00323 6.76417 -10.4063 6.06925 7.07168 -13.9382 3.51921 10.6784 -5.0319 56.5565 36.7641 9.45319 3.71947 0.442415 14.1269 -4.00225 -0.914284 16.8821 -1.93988 2.74252 -3.12811 0.39002 10.8443 0.93544 1.47511 -11.9295 2.43112 0.175375 9.69281 2.94575 -0.412631 1.33194 2.84837 0.00124744 -12.1507 3.09019 
-47.3006 98.9676 124.354 -1.51971 -2.08286 -10.6698 -1.47593 2.56771 2.4344 -60.5607 23.9781 -9.12773 -3.97878 6.73889 -10.3436 6.07439 7.04496 -13.8098 3.61458 10.6219 -5.35082 56.6355 36.7819 9.51487 3.69303 0.432528 14.1949 -4.07947 -0.876542 16.8546 -1.83026 2.99421 -3.24913 0.363864 10.647 0.823216 1.50105 -11.9533 2.29673 0.2909 9.7254 2.76426 -0.399085 1.31095 2.74678 -0.0343503 -12.1404 2.96746 
